<svg width="152" height="153" viewBox="0 0 152 153" fill="none" xmlns="http://www.w3.org/2000/svg">
<path d="M74.1962 0.927292C73.6433 1.19992 57.0237 16.4978 37.2168 34.9461C-2.75488 72.2366 0.0421579 69.3285 0.0421579 73.6301C0.0746816 76.8714 1.66834 79.2948 4.7581 80.87C7.84785 82.4453 11.5556 82.2029 14.6128 80.2945L15.8162 79.5069L15.8812 91.4119C15.9788 103.075 15.9788 103.317 16.6293 103.317C17.2797 103.317 17.2797 103.075 17.3773 90.594L17.4423 77.8711L46.7137 50.6075L75.985 23.344L105.256 50.6075L134.528 77.8711V104.135V130.429H123.762C113.615 130.429 112.997 130.399 113.225 129.914C115.306 125.31 116.347 121.038 116.542 115.889C117.29 96.9858 102.915 80.5065 82.815 77.2955C63.1382 74.145 43.8191 84.899 37.477 102.56C35.7857 107.316 35.2328 110.951 35.4605 116.04C35.6882 121.462 36.4037 124.552 38.7454 129.884C38.973 130.399 38.3226 130.429 28.2077 130.429H17.4423V122.008C17.4423 117.403 17.3123 113.435 17.1496 113.192C16.987 112.95 16.6293 112.859 16.3365 112.95C15.8812 113.102 15.8162 114.222 15.7511 121.705L15.6535 130.278L11.7507 130.429C7.49009 130.611 6.64447 130.883 4.85567 132.61C3.45715 133.973 2.80667 135.518 2.80667 137.548C2.80667 140.456 4.46538 142.91 7.19738 144.091C8.43328 144.606 9.73423 144.667 29.7688 144.667H51.0068L53.2184 146.03C65.2522 153.482 80.3757 154.572 93.1576 148.908C94.9789 148.09 97.4832 146.818 98.6866 146.06L100.898 144.667H122.104C145.358 144.667 144.35 144.758 146.724 142.819C148.35 141.456 149.163 139.79 149.163 137.609C149.163 135.518 148.545 133.973 147.114 132.61C145.326 130.883 144.48 130.611 140.219 130.429L136.317 130.278L136.219 104.892L136.154 79.5069L137.357 80.2945C140.415 82.2332 144.122 82.4453 147.212 80.87C151.505 78.689 153.164 73.9633 151.147 69.692C150.627 68.6318 148.871 66.7233 144.447 62.6035L138.431 56.9387L138.366 50.4561C138.268 43.9734 138.268 43.9431 137.552 43.8522L136.804 43.7613V49.6079V55.4544L126.397 45.7607L115.989 36.067V28.1302V20.1632H126.397H136.804V27.1306C136.804 33.2497 136.869 34.1282 137.325 34.31C137.617 34.4009 137.975 34.31 138.138 34.0676C138.3 33.8253 138.431 30.6143 138.431 26.8882V20.1632H139.406C140.61 20.1632 142.171 19.4665 142.464 18.8C142.561 18.5274 142.659 15.377 142.659 11.8327V5.35004L141.813 4.74419C140.967 4.10803 140.61 4.10803 126.527 4.10803C116.672 4.10803 111.859 4.19891 111.338 4.44125C109.972 5.01682 109.81 5.86502 109.81 12.2871C109.81 18.1336 109.842 18.3457 110.558 19.103C111.111 19.7088 111.696 19.9512 112.834 20.0724L114.363 20.2541V27.4032V34.5523L96.4099 17.8307C86.5227 8.62167 78.0015 0.957581 77.5136 0.806122C76.2777 0.35173 75.3671 0.412308 74.1962 0.927292ZM113.095 35.5217C132.902 54.0003 149.359 69.5708 149.684 70.1464C150.107 70.8734 150.302 71.8731 150.302 73.3574C150.302 75.2053 150.172 75.69 149.326 76.9926C148.708 77.9014 147.732 78.8101 146.757 79.3857C145.358 80.1733 144.838 80.2945 142.854 80.2945C140.935 80.2945 140.284 80.143 139.049 79.4766C138.203 79.0222 137.162 78.2649 136.739 77.8105C136.284 77.3258 122.624 64.6028 106.362 49.4564C83.1403 27.8879 76.603 21.9808 75.985 21.9808C75.3671 21.9808 68.6022 28.1 44.437 50.5772C27.5247 66.2992 13.1817 79.416 12.5638 79.7189C11.7832 80.1127 10.7099 80.2945 9.11628 80.2945C7.13233 80.2945 6.61195 80.1733 5.21343 79.3857C4.23772 78.8101 3.26201 77.9014 2.64406 76.9926C1.79844 75.69 1.66834 75.2053 1.66834 73.3574C1.66834 71.8731 1.86349 70.8734 2.28629 70.1464C2.61153 69.5708 19.0685 54.0003 38.8755 35.5217C72.8628 3.86569 74.9118 1.98753 75.985 1.98753C77.0583 1.98753 79.1073 3.86569 113.095 35.5217ZM140.967 11.9539C141.032 16.7099 140.935 18.1942 140.642 18.376C139.959 18.7698 112.379 18.6789 111.859 18.2851C111.273 17.8307 111.241 6.53146 111.826 5.98619C112.119 5.71356 115.664 5.62268 126.559 5.68326L140.87 5.77414L140.967 11.9539ZM81.8393 78.6284C100.183 81.3244 114.005 95.5924 114.916 112.768C115.469 123.219 111.468 132.853 103.468 140.305C97.9711 145.454 91.7265 148.605 83.7257 150.331C80.4408 151.028 71.5943 151.028 68.2444 150.331C60.2761 148.635 54.2267 145.576 48.6651 140.426C39.526 131.974 35.3304 120.13 37.4444 108.739C40.4366 92.8357 53.4136 81.0821 70.7812 78.5375C72.5375 78.2649 79.8228 78.3557 81.8393 78.6284ZM39.8837 132.186C39.8837 132.883 44.6322 139.002 46.6812 140.971L48.9904 143.152L28.5329 143.092L8.07552 143.001L6.80709 142.062C5.21343 140.88 4.43286 139.426 4.43286 137.609C4.43286 135.185 5.50614 133.549 7.84785 132.428C8.69347 132.004 10.9051 131.944 24.3699 131.944C32.8911 131.944 39.8837 132.065 39.8837 132.186ZM145.163 133.034C146.789 134.246 147.537 135.67 147.537 137.548C147.537 139.426 146.789 140.85 145.163 142.062L143.895 143.001L123.405 143.092L102.915 143.152L105.256 140.971C107.305 139.002 112.086 132.913 112.086 132.186C112.086 132.035 119.079 131.974 127.99 132.004L143.895 132.095L145.163 133.034Z" fill="#25305E"/>
<path d="M70.456 94.1686C68.1468 95.3197 67.8541 96.1376 67.8541 101.833V106.74L62.4227 106.831C57.414 106.952 56.8611 107.013 55.7553 107.649C55.0398 108.073 54.2917 108.891 53.8689 109.709C53.2185 110.921 53.1534 111.436 53.2835 115.101C53.3811 119.524 53.5762 120.069 55.6252 121.462C56.4058 122.038 57.1213 122.129 62.0974 122.25L67.6915 122.402L67.8541 127.612C68.0493 133.398 68.2119 133.882 70.4886 135.124C71.4317 135.639 72.1798 135.73 75.9851 135.73C79.7903 135.73 80.5384 135.639 81.4816 135.124C83.7582 133.882 83.9209 133.398 84.116 127.612L84.2786 122.402L89.8727 122.25C94.8488 122.129 95.5643 122.038 96.3449 121.462C98.3939 120.069 98.5891 119.524 98.6866 115.101C98.8167 111.436 98.7517 110.921 98.1012 109.709C97.6784 108.891 96.9303 108.073 96.2148 107.649C95.109 107.013 94.5561 106.952 89.58 106.831L84.116 106.74V101.833C84.116 96.1376 83.8233 95.3197 81.5141 94.1686C80.2782 93.5627 79.6602 93.4719 75.9851 93.4719C72.3099 93.4719 71.6919 93.5627 70.456 94.1686ZM80.8636 95.5015C82.4248 96.5011 82.4573 96.6829 82.4898 102.257C82.4898 105.165 82.6199 107.709 82.75 107.922C82.9126 108.164 84.8315 108.285 88.8319 108.376C95.3042 108.467 95.7595 108.588 96.6702 110.375C97.0604 111.163 97.158 112.193 97.0604 115.192L96.9629 118.978L95.8896 119.857L94.8488 120.735H88.9946C83.5631 120.735 83.1403 120.766 82.815 121.311C82.6199 121.644 82.4898 124.068 82.4898 127.006C82.4898 132.701 82.3272 133.155 80.3432 133.943C78.8797 134.519 73.0905 134.519 71.6269 133.943C69.6429 133.155 69.4803 132.701 69.4803 127.006C69.4803 124.068 69.3502 121.644 69.1551 121.311C68.8298 120.766 68.407 120.735 63.0406 120.735C56.731 120.735 56.2757 120.645 55.3325 118.918C54.6495 117.706 54.6495 111.648 55.3325 110.315C56.2106 108.588 56.6985 108.467 63.1382 108.376C67.1386 108.285 69.0575 108.164 69.2201 107.922C69.3502 107.709 69.4803 105.165 69.4803 102.257C69.5128 96.6829 69.5454 96.5011 71.1065 95.5015C71.757 95.0774 72.6676 94.9865 75.9851 94.9865C79.3025 94.9865 80.2131 95.0774 80.8636 95.5015Z" fill="#DED4E3"/>
<path d="M69.9031 51.2134C69.8055 51.486 69.8706 51.8496 70.0332 52.001C70.1958 52.1525 72.7652 52.2434 76.1802 52.2131C81.7417 52.1222 82.0019 52.0919 82.0019 51.5163C82.0019 50.9408 81.7417 50.9105 76.0501 50.8196C70.8788 50.759 70.0982 50.8196 69.9031 51.2134Z" fill="#25305E"/>
<path d="M61.9998 60.3012C61.8047 60.5435 61.7071 60.8768 61.8372 61.0585C61.9673 61.2706 66.6507 61.3615 75.985 61.3615C85.3193 61.3615 90.0027 61.2706 90.1328 61.0585C90.2629 60.8768 90.1653 60.5435 89.9702 60.3012C89.6124 59.9074 87.4659 59.8468 75.985 59.8468C64.5041 59.8468 62.3576 59.9074 61.9998 60.3012Z" fill="#25305E"/>
</svg>
