<svg width="152" height="152" viewBox="0 0 152 152" fill="none" xmlns="http://www.w3.org/2000/svg">
<path d="M42.8391 1.89999C40.2266 2.73125 37.8813 4.80937 36.6938 7.39218C36.1 8.69843 36.0703 9.2328 35.9813 20.8406L35.8922 32.9234L22.325 33.0125C9.14375 33.1016 8.72813 33.1312 7.3625 33.7547C5.40313 34.6453 3.41406 36.6047 2.46406 38.5641L1.63281 40.2266V80.4531V120.68L2.28594 122.075C3.17656 124.034 5.13594 126.023 7.09531 126.973L8.75781 127.805L37.6438 127.894L66.5 127.953V134.039V140.125H63.6797C60.3844 140.125 58.3656 140.748 56.4656 142.352C55.0703 143.569 53.8531 145.884 53.5859 147.903C53.4078 149.061 53.4672 149.358 54.0016 149.892C54.625 150.516 54.6844 150.516 75.9406 150.516C93.9016 150.516 97.3453 150.456 97.85 150.1C98.6813 149.477 98.5328 147.072 97.5234 145.023C95.9203 141.698 92.9516 140.125 88.3203 140.125H85.5V134.039V127.953L114.386 127.894L143.242 127.805L144.905 126.973C146.864 126.023 148.823 124.034 149.714 122.075C150.338 120.739 150.367 120.323 150.367 110.289C150.367 100.106 150.367 99.8984 149.773 99.8984C149.18 99.8984 149.18 100.136 149.031 110.141C148.853 121.511 148.883 121.481 146.805 123.737C146.211 124.42 145.113 125.252 144.341 125.637L142.945 126.32H76H9.05469L7.65938 125.637C5.78906 124.717 3.97813 122.609 3.41406 120.739C3.02813 119.433 2.96875 114 2.96875 80.4531C2.96875 36.2484 2.76094 39.6328 5.4625 36.9312C7.98594 34.4375 7.98594 34.4375 23.0672 34.4375H35.9219V38.1484V41.8594H23.75C11.9641 41.8594 11.5484 41.8891 10.9844 42.4531C10.3906 43.0469 10.3906 43.3734 10.45 80.9875L10.5391 118.898L75.4656 118.987C140.095 119.047 140.422 119.047 141.016 118.453C141.609 117.859 141.609 117.473 141.609 80.4531C141.609 43.4328 141.609 43.0469 141.016 42.4531C140.452 41.8891 140.036 41.8594 128.25 41.8594H116.078V38.1484V34.4078L129.527 34.4969C142.886 34.5859 142.945 34.5859 144.341 35.2687C145.113 35.6547 146.3 36.575 146.953 37.3172C149.091 39.7812 149.031 38.7719 149.031 66.0844C149.031 91.4375 149.031 91.2891 150.189 90.5766C150.456 90.3984 150.516 84.3125 150.456 65.2828C150.367 40.3156 150.367 40.2266 149.714 38.8312C148.823 36.8719 146.864 34.8828 144.905 33.9328L143.242 33.1016L129.675 33.0125L116.108 32.9234L116.019 20.8406L115.93 8.75781L115.098 7.09531C114.148 5.13593 112.159 3.17656 110.2 2.28593L108.805 1.63281L76.4453 1.57343C50.4094 1.54375 43.8484 1.60312 42.8391 1.89999ZM109.131 3.47343C110.081 3.79999 111.091 4.4828 112.13 5.49219C114.802 8.19374 114.594 2.96875 114.594 63.8875V117.562H76H37.4062V63.8875C37.4062 2.96875 37.1984 8.19374 39.9 5.49219C42.5422 2.82031 39.8406 3.02812 75.8813 2.99843C104.886 2.96875 107.795 2.99843 109.131 3.47343ZM35.9219 80.4531V117.562H23.8984H11.875V80.4531V43.3437H23.8984H35.9219V80.4531ZM140.125 80.4531V117.562H128.102H116.078V80.4531V43.3437H128.102H140.125V80.4531ZM84.0156 134.039V140.125H76H67.9844V134.039V127.953H76H84.0156V134.039ZM91.7938 141.906C94.2875 142.619 96.4547 145.142 96.9297 147.903L97.1078 149.031H75.9703H54.8625L55.0406 147.903C55.3375 146.241 56.4359 144.281 57.6234 143.331C59.7313 141.639 59.7016 141.639 75.8516 141.609C85.2031 141.609 91.1109 141.728 91.7938 141.906Z" fill="#25305E"/>
<path d="M49.6672 82.4125C49.5781 82.65 49.6375 83.0062 49.7859 83.1547C49.9344 83.3031 60.1766 83.3922 76.1781 83.3625C102.036 83.2734 102.273 83.2734 102.273 82.6797C102.273 82.0859 102.036 82.0859 76.0594 81.9969C52.4578 81.9375 49.8453 81.9672 49.6672 82.4125Z" fill="#25305E"/>
<path d="M49.6672 95.7719C49.5781 96.0094 49.6375 96.3656 49.7859 96.514C49.9344 96.6625 60.1766 96.7515 76.1781 96.7219C102.036 96.6328 102.273 96.6328 102.273 96.039C102.273 95.4453 102.036 95.4453 76.0594 95.3562C52.4578 95.2969 49.8453 95.3265 49.6672 95.7719Z" fill="#25305E"/>
<path d="M71.9787 22.5653C70.105 23.4994 69.8675 24.163 69.8675 28.7841V32.766L65.4603 32.8398C61.3962 32.9381 60.9476 32.9872 60.0503 33.5034C59.4697 33.8475 58.8628 34.5112 58.5197 35.1749C57.9919 36.1581 57.9391 36.5759 58.0447 39.5501C58.1238 43.1388 58.2822 43.5812 59.9448 44.7119C60.5781 45.1789 61.1587 45.2527 65.1964 45.351L69.7355 45.4739L69.8675 49.7016C70.0258 54.3964 70.1578 54.7897 72.0051 55.7975C72.7704 56.2153 73.3773 56.2891 76.465 56.2891C79.5526 56.2891 80.1596 56.2153 80.9249 55.7975C82.7722 54.7897 82.9042 54.3964 83.0625 49.7016L83.1945 45.4739L87.7336 45.351C91.7713 45.2527 92.3519 45.1789 92.9852 44.7119C94.6478 43.5812 94.8062 43.1388 94.8853 39.5501C94.9909 36.5759 94.9381 36.1581 94.4103 35.1749C94.0672 34.5112 93.4603 33.8475 92.8797 33.5034C91.9824 32.9872 91.5338 32.9381 87.4961 32.8398L83.0625 32.766V28.7841C83.0625 24.163 82.825 23.4994 80.9513 22.5653C79.9485 22.0737 79.4471 22 76.465 22C73.4829 22 72.9815 22.0737 71.9787 22.5653ZM80.4235 23.6469C81.6902 24.458 81.7166 24.6055 81.743 29.1282C81.743 31.4879 81.8486 33.5526 81.9541 33.7246C82.0861 33.9213 83.6431 34.0196 86.8891 34.0933C92.1407 34.1671 92.5102 34.2654 93.2491 35.7156C93.5658 36.3547 93.645 37.1904 93.5658 39.6238L93.4866 42.6963L92.6158 43.4092L91.7713 44.122H87.0211C82.6139 44.122 82.2708 44.1466 82.0069 44.589C81.8486 44.8594 81.743 46.8258 81.743 49.21C81.743 53.8311 81.6111 54.1998 80.0013 54.8388C78.8137 55.3059 74.1163 55.3059 72.9287 54.8388C71.3189 54.1998 71.187 53.8311 71.187 49.21C71.187 46.8258 71.0814 44.8594 70.9231 44.589C70.6592 44.1466 70.3161 44.122 65.9617 44.122C60.842 44.122 60.4726 44.0482 59.7072 42.6472C59.1531 41.664 59.1531 36.748 59.7072 35.6665C60.4198 34.2654 60.8156 34.1671 66.0409 34.0933C69.2869 34.0196 70.8439 33.9213 70.9758 33.7246C71.0814 33.5526 71.187 31.4879 71.187 29.1282C71.2134 24.6055 71.2397 24.458 72.5065 23.6469C73.0343 23.3027 73.7732 23.229 76.465 23.229C79.1568 23.229 79.8957 23.3027 80.4235 23.6469Z" fill="#DED4E3"/>
</svg>
