<svg width="152" height="152" viewBox="0 0 152 152" fill="none" xmlns="http://www.w3.org/2000/svg">
<path d="M42.8391 1.89999C40.2266 2.73125 37.8813 4.80937 36.6938 7.39218C36.1 8.69843 36.0703 9.2328 35.9813 20.8406L35.8922 32.9234L22.325 33.0125C9.14375 33.1016 8.72813 33.1312 7.3625 33.7547C5.40313 34.6453 3.41406 36.6047 2.46406 38.5641L1.63281 40.2266V80.4531V120.68L2.28594 122.075C3.17656 124.034 5.13594 126.023 7.09531 126.973L8.75781 127.805L37.6438 127.894L66.5 127.953V134.039V140.125H63.6797C60.3844 140.125 58.3656 140.748 56.4656 142.352C55.0703 143.569 53.8531 145.884 53.5859 147.903C53.4078 149.061 53.4672 149.358 54.0016 149.892C54.625 150.516 54.6844 150.516 75.9406 150.516C93.9016 150.516 97.3453 150.456 97.85 150.1C98.6813 149.477 98.5328 147.072 97.5234 145.023C95.9203 141.698 92.9516 140.125 88.3203 140.125H85.5V134.039V127.953L114.386 127.894L143.242 127.805L144.905 126.973C146.864 126.023 148.823 124.034 149.714 122.075C150.338 120.739 150.367 120.323 150.367 110.289C150.367 100.106 150.367 99.8984 149.773 99.8984C149.18 99.8984 149.18 100.136 149.031 110.141C148.853 121.511 148.883 121.481 146.805 123.737C146.211 124.42 145.113 125.252 144.341 125.637L142.945 126.32H76H9.05469L7.65938 125.637C5.78906 124.717 3.97813 122.609 3.41406 120.739C3.02813 119.433 2.96875 114 2.96875 80.4531C2.96875 36.2484 2.76094 39.6328 5.4625 36.9312C7.98594 34.4375 7.98594 34.4375 23.0672 34.4375H35.9219V38.1484V41.8594H23.75C11.9641 41.8594 11.5484 41.8891 10.9844 42.4531C10.3906 43.0469 10.3906 43.3734 10.45 80.9875L10.5391 118.898L75.4656 118.987C140.095 119.047 140.422 119.047 141.016 118.453C141.609 117.859 141.609 117.473 141.609 80.4531C141.609 43.4328 141.609 43.0469 141.016 42.4531C140.452 41.8891 140.036 41.8594 128.25 41.8594H116.078V38.1484V34.4078L129.527 34.4969C142.886 34.5859 142.945 34.5859 144.341 35.2687C145.113 35.6547 146.3 36.575 146.953 37.3172C149.091 39.7812 149.031 38.7719 149.031 66.0844C149.031 91.4375 149.031 91.2891 150.189 90.5766C150.456 90.3984 150.516 84.3125 150.456 65.2828C150.367 40.3156 150.367 40.2266 149.714 38.8312C148.823 36.8719 146.864 34.8828 144.905 33.9328L143.242 33.1016L129.675 33.0125L116.108 32.9234L116.019 20.8406L115.93 8.75781L115.098 7.09531C114.148 5.13593 112.159 3.17656 110.2 2.28593L108.805 1.63281L76.4453 1.57343C50.4094 1.54375 43.8484 1.60312 42.8391 1.89999ZM109.131 3.47343C110.081 3.79999 111.091 4.4828 112.13 5.49219C114.802 8.19374 114.594 2.96875 114.594 63.8875V117.562H76H37.4062V63.8875C37.4062 2.96875 37.1984 8.19374 39.9 5.49219C42.5422 2.82031 39.8406 3.02812 75.8813 2.99843C104.886 2.96875 107.795 2.99843 109.131 3.47343ZM35.9219 80.4531V117.562H23.8984H11.875V80.4531V43.3437H23.8984H35.9219V80.4531ZM140.125 80.4531V117.562H128.102H116.078V80.4531V43.3437H128.102H140.125V80.4531ZM84.0156 134.039V140.125H76H67.9844V134.039V127.953H76H84.0156V134.039ZM91.7938 141.906C94.2875 142.619 96.4547 145.142 96.9297 147.903L97.1078 149.031H75.9703H54.8625L55.0406 147.903C55.3375 146.241 56.4359 144.281 57.6234 143.331C59.7313 141.639 59.7016 141.639 75.8516 141.609C85.2031 141.609 91.1109 141.728 91.7938 141.906Z" fill="#25305E"/>
<path d="M71.3391 15.2594C68.5484 15.7937 66.5 16.4766 64.0063 17.7234C61.0672 19.2078 59.6719 20.1875 59.6719 20.8109C59.6719 21.7312 60.2063 21.7312 61.5125 20.8406C75.4953 11.2516 94.7031 17.7234 100.195 33.8734C104.708 47.0844 97.1969 61.8094 83.7188 66.1437C68.7859 70.9531 53.0219 61.0375 50.7359 45.3625C50.0531 40.6719 51.0031 34.7937 53.1406 30.5781C54.1797 28.5 54.2391 27.9062 53.4375 27.9062C52.6656 27.9062 50.7656 31.7359 49.8453 35.1797C48.8953 38.5937 48.8953 45.1547 49.8156 48.5391C51.8641 56.1094 57.1188 62.5516 63.9766 65.9359C68.4891 68.1625 70.8047 68.6969 76 68.6672C81.1953 68.6672 83.5703 68.1328 88.0234 65.9359C93.3078 63.3234 97.4641 59.1672 100.077 53.8828C102.273 49.4297 102.808 47.0547 102.808 41.8594C102.808 36.6641 102.273 34.2891 100.077 29.8359C96.6922 22.9484 90.1313 17.6344 82.6797 15.7047C79.6516 14.9031 74.2781 14.6953 71.3391 15.2594Z" fill="#25305E"/>
<path d="M84.9063 29.8656C83.8078 30.1922 82.65 31.2312 77.6031 36.2484L71.5766 42.275L69.9438 40.7312C68.0734 38.95 67.3016 38.5937 65.3422 38.5937C63.0563 38.5937 60.8297 40.5234 60.3844 42.8984C59.9984 45.0062 60.6813 46.1937 64.3922 49.9047C67.5094 53.0219 68.0438 53.4375 69.5281 53.8828C71.3984 54.4172 72.8234 54.2984 74.5156 53.4078C75.0797 53.1406 79.0578 49.3703 83.3031 45.0656C91.5859 36.7531 92.0016 36.1594 91.5859 33.9031C90.9922 30.6969 88.0828 28.9453 84.9063 29.8656ZM88.5281 31.6172C89.8047 32.1219 90.5172 34.4672 89.8641 35.9515C89.5969 36.5453 86.1531 40.1969 81.7594 44.5906C75.1688 51.0922 73.8922 52.25 72.8234 52.5172C70.4188 53.1703 68.5781 52.2203 65.0156 48.4797C63.6203 47.0547 62.2844 45.4219 62.0766 44.8875C61.1859 42.75 62.9969 40.0781 65.3422 40.0781C66.8563 40.0781 67.8063 40.5828 69.4688 42.275C70.3297 43.1953 71.0422 43.6406 71.5172 43.6406C72.1109 43.6406 73.6547 42.275 78.4047 37.525C85.3813 30.5484 85.6188 30.4297 88.5281 31.6172Z" fill="#DED4E3"/>
<path d="M49.6672 82.4125C49.5781 82.65 49.6375 83.0062 49.7859 83.1547C49.9344 83.3031 60.1766 83.3922 76.1781 83.3625C102.036 83.2734 102.273 83.2734 102.273 82.6797C102.273 82.0859 102.036 82.0859 76.0594 81.9969C52.4578 81.9375 49.8453 81.9672 49.6672 82.4125Z" fill="#25305E"/>
<path d="M49.6672 95.7719C49.5781 96.0094 49.6375 96.3656 49.7859 96.514C49.9344 96.6625 60.1766 96.7515 76.1781 96.7219C102.036 96.6328 102.273 96.6328 102.273 96.039C102.273 95.4453 102.036 95.4453 76.0594 95.3562C52.4578 95.2969 49.8453 95.3265 49.6672 95.7719Z" fill="#25305E"/>
</svg>
