<svg width="152" height="152" viewBox="0 0 152 152" fill="none" xmlns="http://www.w3.org/2000/svg">
<path d="M70.775 7.5406C70.4188 7.83747 70.3 8.07497 70.5078 8.25309C70.6859 8.43122 73.2688 8.60934 76.2969 8.6984C81.0469 8.81715 82.175 8.93591 84.6094 9.61872C90.3688 11.2515 95.5938 14.2797 99.75 18.4062C106.727 25.3531 110.17 34.2297 109.755 44.0562C109.488 50.1718 108.003 55.1297 104.916 60.2953L103.253 63.0265L104.352 67.3609C104.975 69.7359 105.539 71.8734 105.628 72.1109C105.806 72.6156 105.658 72.5859 100.284 71.1015L96.2469 69.9734L94.3469 71.1906C91.6156 72.9718 87.7563 74.6937 84.4313 75.614C81.7 76.3859 81.0766 76.4453 75.8516 76.4453C70.8641 76.4453 69.9141 76.3562 67.5688 75.7328C63.2641 74.6047 60.5625 73.3578 55.3969 70.0922C54.8031 69.7359 54.2094 69.825 49.7563 71.0718C47.025 71.8437 44.7094 72.4078 44.6203 72.3187C44.5016 72.2297 45.0656 69.7359 45.8375 66.8265L47.2328 61.4828L45.8672 58.989C42.9281 53.5265 41.7406 48.8359 41.7406 42.6015C41.7703 35.3875 43.6406 29.1531 47.5297 23.3937C48.8063 21.5234 48.9844 20.7812 48.0938 20.7812C46.7875 20.7812 42.75 28.2922 41.4141 33.25C39.1281 41.8 39.9594 50.35 43.8781 58.2468L45.6 61.7203L44.0563 67.7468C42.8391 72.3781 42.5719 73.8625 42.8391 74.1297C43.1063 74.3672 44.5609 74.0703 48.8953 72.8531L54.5953 71.2797L56.1688 72.3187C59.2563 74.3968 63.1453 76.1187 67.3906 77.2468C70.6563 78.1078 78.4641 78.3156 82.0859 77.6328C86.6578 76.8015 91.7344 74.7828 95.2078 72.4078L96.5141 71.5468L101.62 73.0015C104.441 73.7734 106.905 74.3672 107.113 74.2781C107.617 74.1 107.617 73.9515 106.133 68.3109L104.797 63.175L105.717 61.839C107.113 59.85 109.131 55.3968 109.963 52.5172C115.722 32.5968 103.194 11.875 82.9172 7.74841C79.1766 6.97653 71.725 6.85778 70.775 7.5406Z" fill="#25305E"/>
<path d="M57.7125 12.0234C57.5047 12.5578 57.8016 13.0625 58.3656 13.0625C58.9594 13.0625 59.2563 12.1719 58.7516 11.8453C58.1578 11.4891 57.8906 11.5187 57.7125 12.0234Z" fill="#25305E"/>
<path d="M13.4781 67.9547C4.63126 70.4781 4.52995e-06 80.5422 3.74063 89.0328C5.25469 92.4469 8.57969 95.6531 11.9641 96.9891L13.3594 97.5531L11.3109 98.5031C7.54063 100.255 4.24532 103.966 2.90938 108.033C2.28594 109.933 2.25625 110.467 2.1375 127.092C2.04844 142.678 2.07813 144.222 2.52344 144.697C2.96875 145.142 8.5797 145.172 76 145.172C143.42 145.172 149.031 145.142 149.477 144.697C149.922 144.222 149.952 142.678 149.863 127.092C149.744 110.467 149.714 109.933 149.091 108.033C147.755 103.995 144.519 100.284 140.689 98.4734L138.641 97.4938L139.739 97.1078C142.945 95.9797 146.567 92.6547 148.022 89.5078C150.931 83.2438 149.833 76.7719 145.023 71.9922C141.758 68.7266 138.611 67.3906 134.188 67.3906C130.12 67.4203 126.825 68.6672 123.916 71.3391C117.919 76.8016 117.088 85.6188 121.927 92.0312C123.411 93.9906 126.172 96.1281 128.339 96.9891L129.734 97.5531L127.686 98.5031C122.906 100.73 119.314 105.628 118.78 110.734L118.602 112.367L111.031 112.516C102.6 112.694 102.214 112.783 100.136 114.95C97.2563 117.948 97.2563 123.47 100.166 126.142C100.581 126.558 100.938 126.973 100.938 127.122C100.938 127.241 89.7156 127.359 76 127.359C62.2844 127.359 51.0625 127.241 51.0625 127.122C51.0625 126.973 51.4188 126.558 51.8344 126.142C54.7438 123.47 54.7438 117.948 51.8641 114.95C49.7859 112.783 49.4 112.694 40.9688 112.516L33.3984 112.367L33.2203 110.734C32.6859 105.628 29.0938 100.73 24.3141 98.5031L22.2656 97.5531L23.6609 96.9891C30.0438 94.4953 34.1109 87.3109 33.0422 80.4234C32.1219 74.5156 27.4906 69.3203 21.8203 67.8359C19.5344 67.2422 15.7641 67.3016 13.4781 67.9547ZM21.9391 69.4391C28.7078 71.5469 32.8938 78.6125 31.4391 85.5594C29.9547 92.6844 22.7703 97.6719 15.7047 96.4844C7.65938 95.1188 2.31563 87.1625 4.30469 79.4734C5.55157 74.6937 9.05469 70.8938 13.5969 69.4391C15.9125 68.7266 19.5938 68.6969 21.9391 69.4391ZM137.423 69.2016C144.578 70.8344 149.328 78.3156 147.814 85.5594C146.33 92.6844 139.145 97.6719 132.08 96.4844C123.975 95.1188 118.661 87.1922 120.68 79.4141C121.986 74.4563 126.083 70.3297 130.833 69.2016C132.377 68.8453 135.85 68.8156 137.423 69.2016ZM21.9391 99.1266C27.4016 100.819 31.7656 106.37 31.7656 111.655C31.7656 114.03 31.6172 114 40.2563 114C47.1141 114 47.9156 114.059 48.925 114.564C51.3 115.781 52.5469 117.859 52.5469 120.531C52.5469 123.233 51.3297 125.222 48.8359 126.558C47.6781 127.211 47.3813 127.211 35.625 127.211C22.4141 127.211 22.7703 127.27 20.6922 125.311C18.9703 123.738 18.7031 122.758 18.7031 118.097C18.7031 113.288 18.5547 112.516 17.7828 112.516C17.0109 112.516 16.8031 113.97 16.9813 118.453C17.1594 122.728 17.6938 124.361 19.5047 126.231C21.3156 128.102 22.9781 128.606 27.7578 128.784L31.9141 128.933V136.295V143.688H17.9016H3.85938V126.973C3.85938 112.575 3.91875 110.022 4.33438 108.627C5.61094 104.292 9.29219 100.522 13.5969 99.1266C15.9125 98.4141 19.5938 98.3844 21.9391 99.1266ZM138.314 99.1266C142.678 100.492 146.389 104.233 147.666 108.627C148.081 110.022 148.141 112.575 148.141 126.973V143.688H134.128H120.086V136.295V128.933L124.242 128.784C129.022 128.606 130.684 128.102 132.495 126.231C134.306 124.361 134.841 122.728 135.019 118.453C135.197 113.97 134.989 112.516 134.217 112.516C133.445 112.516 133.297 113.288 133.297 118.097C133.297 122.758 133.03 123.738 131.308 125.311C129.23 127.27 129.586 127.211 116.375 127.211C104.619 127.211 104.322 127.211 103.164 126.558C100.67 125.222 99.4531 123.233 99.4531 120.531C99.4531 117.859 100.7 115.781 103.075 114.564C104.084 114.059 104.886 114 111.744 114C120.383 114 120.234 114.03 120.234 111.655C120.234 106.43 124.569 100.878 129.972 99.1266C132.288 98.4141 135.969 98.3844 138.314 99.1266ZM118.602 136.266V143.688H76H33.3984V136.266V128.844H76H118.602V136.266Z" fill="#25305E"/>
<path d="M71.2013 25.9482C69.3276 26.8822 69.0901 27.5458 69.0901 32.1669V36.1488L64.683 36.2226C60.6189 36.3209 60.1702 36.3701 59.273 36.8862C58.6924 37.2304 58.0854 37.894 57.7423 38.5577C57.2145 39.5409 57.1618 39.9587 57.2673 42.9329C57.3465 46.5216 57.5048 46.964 59.1674 48.0947C59.8008 48.5617 60.3814 48.6355 64.4191 48.7338L68.9582 48.8567L69.0901 53.0844C69.2485 57.7792 69.3804 58.1725 71.2277 59.1803C71.993 59.5981 72.6 59.6719 75.6877 59.6719C78.7753 59.6719 79.3823 59.5981 80.1476 59.1803C81.9949 58.1725 82.1269 57.7792 82.2852 53.0844L82.4171 48.8567L86.9562 48.7338C90.9939 48.6355 91.5745 48.5617 92.2079 48.0947C93.8705 46.964 94.0288 46.5216 94.108 42.9329C94.2135 39.9587 94.1608 39.5409 93.633 38.5577C93.2899 37.894 92.6829 37.2304 92.1023 36.8862C91.2051 36.3701 90.7564 36.3209 86.7187 36.2226L82.2852 36.1488V32.1669C82.2852 27.5458 82.0477 26.8822 80.174 25.9482C79.1712 25.4566 78.6697 25.3828 75.6877 25.3828C72.7056 25.3828 72.2042 25.4566 71.2013 25.9482ZM79.6462 27.0297C80.9129 27.8408 80.9393 27.9883 80.9657 32.511C80.9657 34.8707 81.0712 36.9354 81.1768 37.1075C81.3088 37.3041 82.8658 37.4024 86.1118 37.4762C91.3634 37.5499 91.7329 37.6482 92.4718 39.0984C92.7885 39.7375 92.8676 40.5732 92.7885 43.0067L92.7093 46.0791L91.8384 46.792L90.9939 47.5048H86.2437C81.8366 47.5048 81.4935 47.5294 81.2296 47.9718C81.0712 48.2422 80.9657 50.2086 80.9657 52.5928C80.9657 57.2139 80.8337 57.5826 79.2239 58.2217C78.0364 58.6887 73.3389 58.6887 72.1514 58.2217C70.5416 57.5826 70.4096 57.2139 70.4096 52.5928C70.4096 50.2086 70.3041 48.2422 70.1457 47.9718C69.8818 47.5294 69.5387 47.5048 65.1844 47.5048C60.0647 47.5048 59.6952 47.431 58.9299 46.03C58.3757 45.0468 58.3757 40.1308 58.9299 39.0493C59.6424 37.6482 60.0383 37.5499 65.2635 37.4762C68.5095 37.4024 70.0666 37.3041 70.1985 37.1075C70.3041 36.9354 70.4096 34.8707 70.4096 32.511C70.436 27.9883 70.4624 27.8408 71.7291 27.0297C72.2569 26.6856 72.9959 26.6118 75.6877 26.6118C78.3794 26.6118 79.1184 26.6856 79.6462 27.0297Z" fill="#DED4E3"/>
</svg>
