<svg width="152" height="153" viewBox="0 0 152 153" fill="none" xmlns="http://www.w3.org/2000/svg">
<path d="M58.2469 2.42967C56.05 3.05312 55.0406 3.61719 53.2 5.36874C51.3297 7.1203 50.0531 9.43593 49.6078 11.9297C49.4 12.9688 49.2812 17.6891 49.2812 23.5672V33.4234L29.0344 33.5125C8.96562 33.6016 8.75781 33.6016 7.3625 34.2547C5.40313 35.1453 3.41406 37.1047 2.46406 39.0641L1.63281 40.7266V80.9531V121.18L2.28594 122.575C3.17656 124.534 5.13594 126.523 7.09531 127.473L8.75781 128.305L37.6437 128.394L66.5 128.453V134.539V140.625H63.6797C60.3844 140.625 58.3656 141.248 56.4656 142.852C55.0703 144.069 53.8531 146.384 53.5859 148.403C53.4078 149.561 53.4672 149.858 54.0016 150.392C54.625 151.016 54.6844 151.016 75.9406 151.016C93.9016 151.016 97.3453 150.956 97.85 150.6C98.6813 149.977 98.5328 147.572 97.5234 145.523C95.9203 142.198 92.9516 140.625 88.3203 140.625H85.5V134.539V128.453L114.386 128.394L143.242 128.305L144.905 127.473C146.864 126.523 148.823 124.534 149.714 122.575L150.367 121.18V80.9531V40.7266L149.714 39.3312C148.823 37.3719 146.864 35.3828 144.905 34.4328L143.242 33.6016H127.508H111.773L111.684 34.2547L111.595 34.9078L127.27 34.9969L142.945 35.0859L144.341 35.7687C146.211 36.6891 148.022 38.7969 148.586 40.6672C149.269 42.9234 149.269 118.983 148.586 121.239C148.022 123.109 146.211 125.217 144.341 126.137L142.945 126.82H76H9.05469L7.65937 126.137C5.78906 125.217 3.97812 123.109 3.41406 121.239C3.02812 119.933 2.96875 114.5 2.96875 80.9531C2.96875 36.7484 2.76094 40.1328 5.4625 37.4312C8.075 34.8484 7.18437 34.9375 29.7469 34.9375H49.2812V37.075C49.2812 38.2625 49.3703 39.9547 49.4594 40.7859L49.6672 42.3594H30.6078C11.9641 42.3594 11.5781 42.3594 10.9844 42.9531C10.3906 43.5469 10.3906 43.8734 10.45 71.6906C10.5391 99.5672 10.5391 99.8047 11.1328 99.8047C11.7266 99.8047 11.7266 99.5672 11.8156 71.8094L11.875 43.8438H30.875H49.8453L50.1719 45.0906C51.4781 50.1078 53.9125 54.3828 57.5344 57.9156C59.3453 59.6969 62.5813 62.1016 63.5609 62.3984C64.0656 62.5766 64.125 62.9625 64.125 66.4656V70.325L63.0266 71.4234C61.9875 72.4625 61.0078 72.8484 50.9141 76.2031C44.8875 78.1922 39.0984 80.2406 38.0891 80.7156C34.7937 82.2594 31.7063 85.6141 30.1922 89.325C29.5688 90.8391 29.5391 91.4031 29.3906 104.406L29.2422 117.914L20.5734 118.003L11.9047 118.062L11.8156 113.55C11.7266 109.245 11.6969 109.008 11.1328 109.008C10.5687 109.008 10.5391 109.245 10.45 113.669C10.3906 118.033 10.4203 118.389 10.9844 118.953C11.5781 119.547 11.6969 119.547 76 119.547C140.036 119.547 140.422 119.547 141.016 118.953C141.609 118.359 141.609 117.973 141.609 80.9531C141.609 43.9328 141.609 43.5469 141.016 42.9531C140.422 42.3594 140.036 42.3594 121.511 42.3594H102.57L102.659 28.4062C102.778 13.1172 102.63 11.3062 101.264 8.5453C100.136 6.31874 97.3453 3.73593 95.0891 2.81561L93.3672 2.13281L76.5938 2.07344C62.7891 2.01405 59.5531 2.07343 58.2469 2.42967ZM93.9016 4.06248C97.4641 5.16092 100.195 8.36717 100.908 12.2265C101.264 14.1859 101.353 28.5844 101.027 28.7922C100.581 29.0594 96.9 28.3766 94.7031 27.6641C91.4078 26.5656 88.9437 25.0219 86.0938 22.2312C84.6984 20.8656 83.3328 19.6187 83.0656 19.4703C82.4422 19.114 81.6703 19.4109 79.0875 21.0141C74.3969 23.8937 67.3016 26.6547 61.6016 27.7828C58.2469 28.4359 51.5078 29.1187 51.0625 28.8516C50.6469 28.5844 50.6766 14.4531 51.0922 12.2265C51.8047 8.42656 54.4469 5.30937 57.9203 4.12187C59.7609 3.49844 60.2953 3.49843 75.8812 3.46875C91.2 3.46875 92.0609 3.49843 93.9016 4.06248ZM84.4906 22.7953C88.1719 26.5656 92.8328 29.1188 97.5531 29.8906C98.6812 30.0984 99.8984 30.3062 100.255 30.3656C100.819 30.4844 100.908 30.7219 101.086 33.3641C101.383 37.1937 101.086 41.9141 100.344 45.0312C98.6812 51.8891 93.9906 57.8562 87.5781 61.1813C84.0453 63.0219 81.3141 63.7641 77.1578 63.9422C70.0625 64.2687 63.9766 62.0125 58.8406 57.0844C52.8438 51.3547 50.3797 44.3187 50.8844 34.3734C50.9734 32.3547 51.0922 30.6328 51.1516 30.6031C51.1812 30.5437 52.9031 30.3656 54.9219 30.1875C63.9766 29.4156 73.3281 26.3875 80.4531 21.9344C81.5219 21.2516 82.4125 20.7172 82.4125 20.6875C82.4422 20.6875 83.3922 21.6375 84.4906 22.7953ZM140.125 80.9531V118.062L131.456 118.003L122.758 117.914L122.609 104.406C122.461 91.4031 122.431 90.8391 121.808 89.325C120.294 85.6141 117.206 82.2594 113.911 80.7156C112.902 80.2406 107.142 78.1922 101.086 76.1734C91.0219 72.8484 90.0125 72.4328 89.0031 71.4234L87.875 70.325V66.6437V62.9328L90.3094 61.3594C95.9203 57.7078 100.166 51.9187 101.709 45.8328L102.184 43.8438H121.155H140.125V80.9531ZM69.1719 64.6547C71.0719 65.2187 72.0813 65.3375 76 65.3375C80.6312 65.3375 80.75 65.3078 85.7375 63.8531C86.3906 63.675 86.3906 63.675 86.3906 66.8219C86.3906 70.5031 86.7172 71.4828 88.3203 72.9078L89.4484 73.8875L83.0953 80.2406C79.0281 84.3078 76.5344 86.5938 76.1484 86.5938C75.7625 86.5938 73.2687 84.3078 69.1719 80.2109L62.8187 73.8281L63.8875 72.7297C65.3719 71.1859 65.6094 70.4141 65.6094 66.7922C65.6094 63.2 65.1641 63.4672 69.1719 64.6547ZM68.1328 81.25C74.7531 87.8406 75.0203 88.0781 76.1484 88.0781C77.3063 88.0781 77.5734 87.8406 84.1641 81.25L91.0219 74.3922L97.2266 76.5C100.641 77.6578 103.55 78.7562 103.669 78.9641C104.767 80.6859 105.391 86.2078 104.827 89.3844C104.292 92.5016 103.698 93.7187 102.748 93.7187C102.333 93.7187 101.323 94.0453 100.492 94.4312C94.8516 97.1031 93.7234 104.555 98.2953 108.681C102.719 112.659 109.161 111.353 112.1 105.891C112.516 105.119 112.664 104.228 112.664 102.328C112.664 100.042 112.575 99.6562 111.744 98.1719C110.675 96.2719 108.567 94.5203 106.667 93.9859C105.45 93.6594 105.361 93.5703 105.539 92.8578C106.222 90.1859 106.578 87.9594 106.578 86.1484C106.578 84.2484 106.044 80.9828 105.539 79.7062C105.361 79.2609 106.044 79.4094 109.28 80.5375C111.477 81.2797 113.881 82.2891 114.653 82.7641C116.345 83.8625 118.394 86 119.403 87.7812C121.066 90.6312 121.125 91.225 121.125 105.208V118.062H76H30.875V105.178C30.875 93.3625 30.9344 92.1453 31.4391 90.4828C32.5078 87.0687 35.4469 83.5953 38.5047 82.1406C39.9891 81.4281 47.5594 78.8156 47.6781 78.9641C47.7375 79.0234 47.5594 80.1812 47.3219 81.5469C46.8469 84.2484 46.9359 87.5734 47.6187 90.1562L48.0047 91.5812L46.9359 91.7891C44.2344 92.2938 41.2656 94.7281 40.0187 97.4297C39.3953 98.7656 39.3359 99.4484 39.2469 104.198C39.1281 109.364 39.1578 109.542 39.8109 110.225C40.375 110.819 40.7609 110.937 42.2156 110.937C43.5219 110.937 43.9969 110.819 44.1453 110.492C44.3828 109.809 44.0859 109.631 42.3641 109.453L40.8203 109.305L40.7312 104.733C40.6422 99.3297 40.9688 97.9047 42.8391 95.8562C44.5312 94.0453 46.0156 93.3625 48.5688 93.1844C50.3797 93.0656 50.9437 93.1547 52.2797 93.7781C54.2687 94.6984 55.6641 96.0937 56.5844 98.0234C57.2375 99.3891 57.2969 99.8641 57.2969 104.466V109.453H55.8422C54.3875 109.453 53.4969 109.987 53.8828 110.641C53.9719 110.789 54.8625 110.937 55.8422 110.937C57.2078 110.937 57.7125 110.819 58.2172 110.314C58.8109 109.72 58.8109 109.453 58.7219 104.169C58.6328 98.7656 58.6031 98.5578 57.8016 97.0734C56.3469 94.2828 53.6156 92.2047 50.7953 91.7594C49.6375 91.5812 49.5484 91.4922 49.1328 90.0375C48.2125 86.7125 48.3016 82.4969 49.3406 79.2906L49.7266 78.1922L55.2187 76.3219C58.2469 75.3125 60.8297 74.4516 61.0078 74.4516C61.1562 74.4219 64.3625 77.4797 68.1328 81.25ZM107.944 96.2422C112.664 99.1812 112.337 106.217 107.409 108.681C104.559 110.106 101.442 109.631 99.1562 107.434C96.0984 104.466 96.1281 100.012 99.2156 97.0734C100.73 95.6187 101.977 95.1734 104.381 95.2625C106.133 95.3516 106.727 95.5 107.944 96.2422ZM84.0156 134.539V140.625H76H67.9844V134.539V128.453H76H84.0156V134.539ZM91.7937 142.406C94.2875 143.119 96.4547 145.642 96.9297 148.403L97.1078 149.531H75.9703H54.8625L55.0406 148.403C55.3375 146.741 56.4359 144.781 57.6234 143.831C59.7312 142.139 59.7016 142.139 75.8516 142.109C85.2031 142.109 91.1109 142.228 91.7937 142.406Z" fill="#25305E"/>
</svg>
