<svg width="152" height="152" viewBox="0 0 152 152" fill="none" xmlns="http://www.w3.org/2000/svg">
<path d="M28.4109 9.29219L20.1578 17.3672L20.2469 60.5625L20.3359 103.758H21.2266H22.1172L22.2062 61.2156L22.2656 18.7031H29.2719C33.4875 18.7031 36.4859 18.5844 36.8422 18.4062C38.1187 17.6938 38.2969 16.7438 38.2969 9.79688V3.26562H66.2031H94.1094V15.8828C94.1094 29.2422 94.1687 29.7469 95.5344 31.2609C97.2562 33.1609 100.819 33.4875 102.837 31.9437C104.975 30.3406 105.123 29.6578 105.034 22.0578L104.945 15.2891L104.233 15.2C103.847 15.1406 103.402 15.2594 103.283 15.4969C103.134 15.7047 103.016 18.7922 103.016 22.3547V28.8563L102.006 29.8656C101.145 30.7266 100.789 30.875 99.6312 30.875C98.5625 30.875 98.0875 30.6969 97.3156 30.0141L96.3359 29.1531L96.2469 16.2094L96.1578 3.26562H106.341C115.93 3.26562 116.583 3.29532 117.473 3.85938C119.403 5.0172 119.344 4.42345 119.344 23.3938C119.344 41.8594 119.314 41.5922 120.828 41.1172C121.422 40.9391 121.422 40.7609 121.422 27.2828V13.6562H124.183C126.38 13.6562 127.092 13.775 127.864 14.25C129.883 15.4672 129.734 9.82657 129.734 81.0469C129.734 152.534 129.883 146.834 127.805 148.141C126.855 148.734 126.439 148.734 81.225 148.734C30.8156 148.734 34.4672 148.883 33.25 146.864C32.775 146.092 32.6562 145.38 32.6562 143.153V140.422H74.8125C116.078 140.422 117.028 140.422 118.127 139.828C119.552 139.116 120.709 137.75 121.125 136.325C121.362 135.553 121.422 122.164 121.362 92.4766L121.273 49.7266L120.561 49.6375C120.175 49.5781 119.73 49.6969 119.611 49.9344C119.462 50.1422 119.344 69.4984 119.344 92.9516V135.583L118.661 136.592C118.305 137.127 117.652 137.75 117.266 137.958C116.672 138.255 106.786 138.344 70.8641 138.344C20.425 138.344 24.0766 138.492 22.8594 136.473C22.2953 135.583 22.2656 134.9 22.2656 124.183C22.2656 113.406 22.2359 112.812 21.7016 112.545C21.3156 112.338 21.0187 112.338 20.6625 112.605C20.2172 112.931 20.1578 114 20.2469 124.747L20.3359 136.503L21.2266 137.78C22.6516 139.798 24.1656 140.422 27.6391 140.422H30.5187L30.6375 143.658C30.7266 146.716 30.7859 146.983 31.6172 148.17C32.1219 148.853 33.1016 149.744 33.8141 150.13L35.15 150.812L81.4922 150.753L127.864 150.664L129.081 149.803C129.883 149.269 130.595 148.408 131.07 147.428L131.812 145.884L131.753 80.6906L131.664 15.4969L130.773 14.2203C129.348 12.2016 127.834 11.5781 124.361 11.5781H121.481L121.362 8.34219C121.273 5.28438 121.214 5.0172 120.383 3.8297C119.908 3.14688 118.898 2.25626 118.186 1.87032L116.88 1.1875H76.7719H36.6641L28.4109 9.29219ZM36.1 16.2391C35.9812 16.5359 34.5562 16.625 29.9547 16.625H23.9281L30.0141 10.7172L36.0703 4.83907L36.1594 10.3609C36.1891 13.3891 36.1594 16.0312 36.1 16.2391Z" fill="#25305E"/>
<path d="M66.2922 32.8344C64.7484 33.6063 64.4218 34.7344 64.4218 39.0984C64.4218 44.1156 64.6297 43.9375 59.4047 43.9375C53.4078 43.9375 52.9922 44.3531 52.9922 50.4688C52.9922 54.5656 53.2 55.1891 54.714 56.1094C55.5453 56.6141 56.2281 56.7031 59.7015 56.7031C62.4328 56.7031 63.8281 56.8219 64.0656 57.0594C64.3031 57.2969 64.4218 58.6922 64.4218 61.3641C64.4218 67.6875 64.7187 67.9844 70.8937 67.9844H75.1687L76.1781 66.975L77.1875 65.9656V61.8984C77.1875 59.6719 77.3359 57.5938 77.4843 57.2672C77.7812 56.7625 78.1672 56.7031 81.8781 56.7031C85.4406 56.7031 86.064 56.6141 86.925 56.1094C88.3797 55.2188 88.7656 53.9719 88.7656 50.1719C88.7656 44.4719 88.2015 43.9375 82.3234 43.9375C77.0093 43.9375 77.1875 44.1156 77.1875 39.0094C77.1875 32.8344 76.7125 32.3594 70.7453 32.3594C68.1625 32.3594 67.0047 32.5078 66.2922 32.8344ZM74.5453 34.7344C75.05 35.0312 75.1093 35.4172 75.1093 39.1281C75.1093 45.4516 75.7031 46.0156 82.2047 46.0156C85.7375 46.0156 86.0937 46.075 86.3906 46.5797C86.539 46.9062 86.6875 48.5984 86.6875 50.35C86.6875 54.7141 86.8062 54.625 81.7297 54.625C75.525 54.625 75.1093 55.0703 75.1093 61.3938C75.1093 63.9469 74.9906 65.3125 74.7531 65.55C74.2484 66.0547 67.3609 66.0547 66.8562 65.55C66.6187 65.3125 66.5 63.9172 66.5 61.2453C66.5 55.0109 66.114 54.625 59.8797 54.625C56.525 54.625 55.8125 54.5359 55.4859 54.1203C54.9515 53.5266 54.7437 48.0047 55.189 46.8172L55.5156 46.0156H59.375C63.5015 46.0156 64.689 45.7484 65.7578 44.5312C66.2922 43.9672 66.3812 43.3438 66.5 39.4547C66.6187 35.9516 66.7375 34.9422 67.0937 34.7344C67.6875 34.3484 73.8031 34.3484 74.5453 34.7344Z" fill="#DED4E3"/>
<path d="M36.1297 80.6609C35.714 81.0469 35.9218 81.9375 36.4859 82.2344C36.8718 82.4125 41.6515 82.5312 49.9937 82.5312C61.5125 82.5312 62.9375 82.4719 63.3828 82.0562C63.65 81.7891 63.7984 81.3734 63.7093 81.1359C63.6203 80.8984 63.5312 80.6312 63.5312 80.5719C63.5312 80.3641 36.3375 80.4531 36.1297 80.6609Z" fill="#25305E"/>
<path d="M75.3172 80.6609C74.9015 81.0469 75.1093 81.9375 75.6734 82.2344C76.0593 82.4125 81.2547 82.5312 90.4578 82.5312C105.509 82.5312 105.895 82.5016 105.628 81.1656C105.539 80.6313 105.094 80.6016 90.5172 80.5125C82.264 80.4828 75.4062 80.5422 75.3172 80.6609Z" fill="#25305E"/>
<path d="M36.189 92.8031C35.9219 93.1297 35.8922 93.3969 36.1297 93.7531C36.3969 94.1984 37.6437 94.2578 49.875 94.2578C62.1062 94.2578 63.3531 94.1984 63.6203 93.7531C63.8578 93.3969 63.8281 93.1297 63.5609 92.8031C63.2047 92.3875 61.6312 92.3281 49.875 92.3281C38.1187 92.3281 36.5453 92.3875 36.189 92.8031Z" fill="#25305E"/>
<path d="M75.2281 92.7437C75.139 92.9813 75.1093 93.4266 75.1687 93.7234C75.2578 94.2281 76.0296 94.2578 90.3984 94.2578H105.539L105.628 93.5453C105.687 93.1594 105.569 92.7141 105.331 92.5953C105.123 92.4469 98.2953 92.3281 90.1609 92.3281C77.5734 92.3281 75.3765 92.3875 75.2281 92.7437Z" fill="#25305E"/>
<path d="M36.1297 104.708C35.714 105.094 35.9218 105.984 36.4859 106.281C37.1093 106.608 61.6609 106.727 62.8484 106.4C63.5609 106.192 63.8875 105.598 63.65 104.945C63.5015 104.559 61.6906 104.5 49.9047 104.5C42.4234 104.5 36.2187 104.589 36.1297 104.708Z" fill="#25305E"/>
<path d="M75.3172 104.708C74.9015 105.094 75.1093 105.984 75.6734 106.281C76.0593 106.459 81.2547 106.578 90.4578 106.578C105.509 106.578 105.895 106.548 105.628 105.212C105.539 104.678 105.094 104.648 90.5172 104.559C82.264 104.53 75.4062 104.589 75.3172 104.708Z" fill="#25305E"/>
<path d="M36.189 116.85C35.9219 117.177 35.8922 117.444 36.1297 117.8C36.3969 118.245 37.6437 118.305 49.875 118.305C62.1062 118.305 63.3531 118.245 63.6203 117.8C63.8578 117.444 63.8281 117.177 63.5609 116.85C63.2047 116.434 61.6312 116.375 49.875 116.375C38.1187 116.375 36.5453 116.434 36.189 116.85Z" fill="#25305E"/>
<path d="M75.2281 116.791C75.139 117.028 75.1093 117.473 75.1687 117.77C75.2578 118.275 76.0593 118.305 89.8046 118.394C97.8203 118.423 104.648 118.394 105.034 118.305C105.806 118.127 105.955 116.85 105.212 116.553C104.945 116.464 98.1468 116.375 90.0718 116.375C77.5437 116.375 75.3765 116.434 75.2281 116.791Z" fill="#25305E"/>
</svg>
